<svg xmlns="http://www.w3.org/2000/svg" viewBox="0 0 100 100" class="icon icon-custom-size sidebar-brand-full" height="35" role="img">
    <g fill="#0f81c7">
        <path stroke-width="4" d="M50,10c-22.0556641,0-40,17.9438477-40,40c0,6.6153564,1.6160889,12.9546509,4.5678711,18.5846558  c-0.0786743,0.0743408-0.1627197,0.1395874-0.2397461,0.2166138c-4.3935547,4.3930664-4.3935547,11.5415039,0,15.9345703  c4.2285156,4.2285156,19.4892578,5.222168,20.1376953,5.262207C34.4863281,89.9995117,34.5068359,90,34.5273438,90  c0.2646484,0,0.5185547-0.1049805,0.7070312-0.2929688c0.203125-0.2026367,0.3085938-0.4829102,0.2910156-0.769043  c-0.0400391-0.6474609-1.0341797-15.9082031-5.2626953-20.1367188c-3.8228149-3.8240967-9.7321167-4.3158569-14.0966187-1.4841919  C13.4736328,62.0528564,12,56.1526489,12,50c0-20.953125,17.046875-38,38-38s38,17.046875,38,38  c0,20.6196289-16.5058594,37.4560547-37,37.9868164V73.9493408c8.6166992-0.5212402,15.4726562-7.6765747,15.4726562-16.4224854  v-9.5786133h0.2275391c1.4033203,0,2.5449219-1.1416016,2.5449219-2.5449219V40.640625  c0-1.4033203-1.1416016-2.5449219-2.5449219-2.5449219h-5.0361328V26.9511719c0-2.2705078-1.8476562-4.1176758-4.1181641-4.1176758  s-4.1171875,1.847168-4.1171875,4.1176758v11.1445312h-6.8574219V26.9511719c0-2.2705078-1.8466797-4.1176758-4.1171875-4.1176758  s-4.1181641,1.847168-4.1181641,4.1176758v11.1445312h-5.0361328c-1.4033203,0-2.5449219,1.1416016-2.5449219,2.5449219v4.7626953  c0,1.4033203,1.1416016,2.5449219,2.5449219,2.5449219h0.2275391v9.5786133c0,8.7459106,6.855957,15.9012451,15.4726562,16.4224854  V89c0,0.5522461,0.4472656,1,1,1c22.0556641,0,40-17.9438477,40-40S72.0556641,10,50,10z M18.3896484,74.5166626v5.899353  c0,0.5522461,0.4472656,1,1,1s1-0.4477539,1-1V76.895752c2.4165649,2.6506348,5.2019043,5.0115967,8.3378906,6.9846191  c0.4677734,0.296875,1.0849609,0.1538086,1.3789062-0.3134766c0.2939453-0.4677734,0.1533203-1.0849609-0.3144531-1.3789062  c-3.24823-2.0438232-6.1015015-4.5247803-8.5328369-7.3256836h4.6842041c0.5527344,0,1-0.4477539,1-1s-0.4472656-1-1-1h-6.3076782  c-0.9143066-1.2109375-1.7503052-2.473999-2.5099487-3.7820435c1.5569458-1.0476074,3.3621826-1.5748901,5.1691895-1.5748901  c2.3740234,0,4.7470703,0.9033203,6.5537109,2.7099609c2.8222656,2.8222656,4.1914062,12.84375,4.5966797,17.7021484  c-4.859375-0.4047852-14.8808594-1.7739258-17.703125-4.5957031c-3.5556641-3.5556641-3.6043091-9.3013916-0.1620483-12.927063  C16.4278564,71.8242188,17.3652954,73.1998901,18.3896484,74.5166626z M55.4287109,26.9511719  c0-1.1674805,0.9501953-2.1176758,2.1171875-2.1176758c1.1679688,0,2.1181641,0.9501953,2.1181641,2.1176758v11.1445312h-4.2353516  V26.9511719z M40.3359375,26.9511719c0-1.1674805,0.9501953-2.1176758,2.1181641-2.1176758  c1.1669922,0,2.1171875,0.9501953,2.1171875,2.1176758v11.1445312h-4.2353516V26.9511719z M33.2998047,45.9482422  c-0.3007812,0-0.5449219-0.2446289-0.5449219-0.5449219V40.640625c0-0.300293,0.2441406-0.5449219,0.5449219-0.5449219h33.4003906  c0.3007812,0,0.5449219,0.2446289,0.5449219,0.5449219v4.7626953c0,0.300293-0.2441406,0.5449219-0.5449219,0.5449219H33.2998047z   M35.5273438,57.5268555v-9.5786133h28.9453125v9.5786133C64.4726562,65.5073242,57.9804688,72,50,72  S35.5273438,65.5073242,35.5273438,57.5268555z"></path>
    </g>
</svg>